<svg width="77" height="77" viewBox="0 0 77 77" fill="none" xmlns="http://www.w3.org/2000/svg">
<g id="Arrow_04" clip-path="url(#clip0_268_222)">
<g id="Group">
<path id="Vector" fill-rule="evenodd" clip-rule="evenodd" d="M74.0802 59.1103C62.6662 31.2966 33.2708 23.7334 5.43794 27.2867C4.95978 27.3469 4.52086 27.0086 4.46073 26.5304C4.4006 26.0522 4.73886 25.6134 5.21702 25.5532C33.8291 21.8988 63.9635 29.855 75.6968 58.4482C75.8805 58.8933 75.6668 59.4033 75.2196 59.5876C74.7745 59.7713 74.2644 59.5575 74.0802 59.1103Z" fill="black"/>
<path id="Vector_2" fill-rule="evenodd" clip-rule="evenodd" d="M5.84973 26.3527C7.27143 26.9323 9.06368 27.6399 9.26472 27.7261C14.713 30.063 19.5067 33.1198 24.0197 36.9829C24.3864 37.296 24.4288 37.849 24.1157 38.2157C23.8026 38.5824 23.2496 38.6248 22.8829 38.3117C18.5078 34.5642 13.8595 31.5984 8.57436 29.3322C8.26639 29.1999 4.23646 27.6117 3.44572 27.2293C3.12065 27.074 2.98499 26.8851 2.95721 26.8375C2.80013 26.5904 2.80079 26.3652 2.83513 26.193C2.87536 25.9989 3.01989 25.6947 3.39013 25.466C3.77855 25.2283 4.70079 24.9347 4.92761 24.8418C8.34596 23.4304 12.2841 22.1531 15.6803 20.2337C18.9192 18.4035 21.6685 15.9863 22.878 12.2145C23.0248 11.7552 23.5186 11.5025 23.9779 11.6493C24.4372 11.7962 24.6899 12.2899 24.5431 12.7492C23.19 16.9659 20.1607 19.7098 16.5414 21.7553C13.165 23.663 9.26967 24.9569 5.84973 26.3527Z" fill="black"/>
</g>
</g>
<defs>
<clipPath id="clip0_268_222">
<rect width="63.2693" height="63.2693" fill="white" transform="matrix(0.970296 -0.241922 -0.241922 -0.970296 15.3064 76.6963)"/>
</clipPath>
</defs>
</svg>
