<svg width="231" height="221" viewBox="0 0 231 221" fill="none" xmlns="http://www.w3.org/2000/svg">
<g id="scribble 1">
<path id="Vector" fill-rule="evenodd" clip-rule="evenodd" d="M155.007 46.2586C153.346 46.6057 151.486 47.2385 150.987 47.755C150.459 48.1757 150.081 48.2832 150.162 48.0105C150.242 47.7378 149.247 47.9788 147.963 48.6144C146.63 49.2225 145.357 49.626 145.108 49.4883C144.86 49.3506 144.332 49.7713 143.943 50.5067C143.504 51.2146 142.986 51.4033 142.6 50.9509C142.233 50.4303 141.865 50.7016 141.604 51.5878C141.384 52.3377 141.065 52.6366 140.827 52.2668C140.639 51.9246 140.311 52.0596 140.131 52.6731C139.91 53.423 139.582 53.5579 139.166 53.0098C138.829 52.585 138.461 52.4603 138.361 52.8012C138.281 53.0739 136.966 54.0097 135.503 54.8629C134.04 55.7161 132.804 56.7751 132.824 57.1029C132.863 57.3625 132.643 57.7164 132.265 57.8239C131.957 57.8907 131.468 58.571 131.247 59.3209C131.047 60.0026 130.668 60.5059 130.37 60.3407C130.122 60.203 129.734 60.5425 129.573 61.0878C129.413 61.6332 129.143 61.9596 128.945 61.8494C127.735 60.8606 127.217 61.0493 127.114 62.578C127.102 63.6019 126.882 63.9558 126.665 63.5179C126.209 62.7102 124.567 63.781 124.882 64.6699C124.951 65.0252 124.692 65.1196 124.246 64.8717C123.402 64.4035 123.113 64.798 122.411 67.184C122.21 67.8657 121.852 68.3009 121.603 68.1632C121.355 68.0255 121.225 68.2706 121.254 68.7623C121.283 69.2539 121.064 69.2119 120.727 68.7871C120.053 67.9374 119.585 68.5495 119.182 70.7048C119.141 71.2371 118.882 71.3314 118.694 70.9892C118.506 70.647 117.51 71.284 116.474 72.4532C115.347 73.7312 114.758 74.7524 115.025 75.2179C115.263 75.5877 114.655 76.2811 113.699 76.7817C112.744 77.2823 111.797 78.3428 111.576 79.0926C111.356 79.8425 110.847 80.591 110.539 80.6578C110.161 80.7653 109.762 81.3368 109.631 81.9779C109.48 82.6871 108.452 84.4162 107.295 85.9945C106.108 87.477 104.961 89.2191 104.701 89.7094C104.441 90.1997 104.202 90.6218 104.152 90.5943C104.053 90.5392 103.204 92.0507 101.656 95.1562C100.906 96.7228 98.7687 100.85 96.9109 104.418C91.4673 114.878 91.3174 115.191 91.0051 116.841C90.8638 117.715 90.564 118.341 90.3158 118.204C89.9188 117.983 88.3111 120.897 86.9707 124.277C86.6403 125.204 86.3205 125.899 86.2708 125.871C86.2212 125.843 85.9415 126.402 85.6713 127.124C83.7714 131.621 82.4425 134.372 81.1451 136.428C80.3365 137.803 79.5374 139.342 79.377 139.887C79.167 140.405 77.7769 143.757 76.277 147.286C71.638 157.955 69.2268 168.115 71.2446 168.124C71.7018 168.14 72.2096 167.788 72.37 167.242C72.5304 166.697 73.0974 166.536 73.6433 166.839C74.1892 167.142 74.9252 166.995 75.2345 166.532C75.5934 166.097 75.9714 165.99 76.1594 166.332C76.3474 166.674 76.5659 166.716 76.7158 166.403C76.796 166.13 77.1961 165.163 77.5064 164.304C77.8864 163.405 78.4448 162.684 78.7827 162.713C79.1702 162.769 79.6188 162.225 79.8194 161.543C79.9998 160.93 80.628 160.168 81.215 159.939C81.7724 159.614 82.4111 158.62 82.5925 157.611C82.8542 156.329 83.1931 155.962 83.5997 156.346C84.0062 156.73 84.2058 156.444 84.2078 155.653C84.2393 154.956 84.8093 153.607 85.5673 152.601C86.9639 150.6 87.2035 150.178 87.5243 149.087C87.6246 148.747 87.9128 148.748 88.1008 149.09C88.3184 149.528 88.6974 149.025 89.0182 147.934C89.319 146.911 90.0769 145.905 90.7336 145.635C91.4502 145.292 91.5103 145.088 90.9141 145.021C89.6819 144.893 89.7822 144.552 91.3964 142.989C92.1238 142.283 92.8301 142.04 93.0181 142.383C93.2061 142.725 93.4447 142.699 93.565 142.29C93.6653 141.949 93.6271 141.293 93.3895 140.923C93.2015 140.581 93.1138 139.898 93.2141 139.557C93.3344 139.148 93.5234 139.095 93.7314 139.369C93.8698 139.683 94.2803 138.484 94.7119 136.82C95.1646 134.692 95.7241 133.575 96.4905 133.129C97.1177 132.763 97.826 131.729 98.1067 130.774C98.3674 129.888 99.4758 127.886 100.534 126.253C101.621 124.715 102.33 123.285 102.181 123.202C101.983 123.092 102.282 122.862 102.799 122.673C103.555 122.458 103.635 122.185 103.219 121.637C102.803 121.089 102.883 120.816 103.57 120.246C104.287 119.772 104.388 119.431 104.032 118.678C103.656 117.994 103.716 117.789 104.223 117.833C105.067 117.905 106.689 113.175 106.115 112.381C105.927 112.038 106.017 111.929 106.364 112.122C106.682 112.219 107.12 111.907 107.28 111.362C107.441 110.817 108.178 110.274 108.894 110.196C109.782 110.054 109.965 109.627 109.444 108.915C108.978 108.339 108.909 107.984 109.257 108.177C109.574 108.274 110.033 107.894 110.283 107.239C110.543 106.353 110.652 106.572 110.659 107.924C110.646 108.948 110.903 109.645 111.261 109.606C112.066 109.419 112.608 107.578 111.963 107.22C111.714 107.082 111.627 106.399 111.827 105.718C112.068 104.9 112.237 104.914 112.325 105.597C112.383 106.184 112.882 105.272 113.473 103.459C114.956 98.8103 115.385 97.9386 115.901 98.5418C116.158 98.8434 116.087 99.6759 115.837 100.33C115.427 101.134 115.516 101.421 116.004 101.136C116.491 100.852 116.842 99.857 116.935 98.1644C117.161 95.4348 118.888 92.5076 119.122 94.4611C119.316 96.1551 120.811 94.6057 120.796 92.6942C120.83 91.2061 120.78 91.1786 120.359 92.6102C119.968 93.7416 119.69 93.9041 119.145 93.2052C118.679 92.6295 118.71 92.3293 119.117 92.3176C119.505 92.374 119.953 91.83 120.174 91.0802C120.394 90.3303 120.962 89.7732 121.42 89.789C121.897 89.7367 122.385 89.4523 122.525 88.9751C122.645 88.5661 123.313 88.0641 123.999 87.8899C125.421 87.569 126.331 85.457 125.079 85.3965C124.502 85.3937 124.384 85.0109 124.714 84.084C124.964 83.4298 125.443 82.9816 125.79 83.1744C126.137 83.3672 126.555 83.1234 126.716 82.578C126.856 82.1009 127.902 81.0955 129.037 80.3773C130.152 79.7272 131.189 78.558 131.34 77.8487C131.471 77.2077 132.319 75.6962 133.237 74.54C134.154 73.3839 134.972 72.1726 135.093 71.7636C135.193 71.4228 135.85 71.1528 136.456 71.2513C137.42 71.3105 137.579 71.161 137.173 70.3809C136.768 69.6007 136.858 69.4919 137.552 69.8775C138.049 70.1529 138.557 69.8004 138.817 68.9142C139.038 68.1643 139.377 67.7972 139.565 68.1395C140.049 69.0429 142.451 66.5694 142.465 65.1496C142.476 64.5216 142.995 63.937 143.73 63.7903C144.446 63.7118 145.134 63.1416 145.294 62.5963C145.454 62.0509 146.968 60.8293 148.65 60.0181C150.352 59.1388 151.776 58.026 151.768 57.4662C151.759 56.9063 152.516 56.2955 153.432 55.9313C155.033 55.3928 156.018 54.9879 160.905 52.7037L163.243 51.6226L162.453 49.5982C161.397 46.7123 158.686 45.5252 155.007 46.2586ZM121.678 85.9674C121.618 86.1719 121.319 86.4025 120.961 86.4418C120.653 86.5086 120.445 86.2345 120.545 85.8937C120.665 85.4847 121.013 85.2815 121.262 85.4192C121.559 85.5845 121.718 85.831 121.678 85.9674ZM109.481 105.843C109.381 106.184 109.032 106.387 108.735 106.222C108.487 106.084 108.488 105.688 108.737 105.43C109.006 105.103 109.334 104.968 109.483 105.051C109.582 105.106 109.601 105.434 109.481 105.843ZM76.5433 163.849C76.6321 164.136 76.234 164.312 75.5783 164.186C74.873 164.032 74.5857 163.635 74.7462 163.089C75.0068 162.203 76.1884 162.7 76.5433 163.849Z" fill="#171717"/>
<path id="Vector_2" fill-rule="evenodd" clip-rule="evenodd" d="M59.791 15.6999C59.41 16.9952 57.2519 17.4628 56.4493 16.4623C55.954 15.7909 55.6342 16.4857 54.6401 20.454C52.5517 28.7316 52.0756 36.2386 52.0056 63.9543C51.9605 66.0704 51.8658 68.1589 51.7254 68.6361C51.6051 69.0451 51.7586 71.2713 52.101 73.4438C52.4233 75.6845 52.4975 77.7874 52.2083 78.182C51.6594 79.0668 51.883 84.9797 52.4785 85.3102C52.6771 85.4204 52.5748 86.5531 52.2139 87.7802C51.853 89.0073 51.6675 91.6005 51.8018 93.4989C51.9162 95.4655 51.8711 97.5816 51.6906 98.1951C51.4901 98.8768 51.4966 100.229 51.6731 101.199C51.8696 102.101 51.8761 103.452 51.6957 104.066C51.4951 104.748 51.5829 105.431 51.8807 105.596C52.1288 105.734 52.1975 106.089 51.9684 106.279C51.6295 106.646 51.0551 113.702 51.1549 117.485C51.1805 119.164 50.6086 129.155 50.0637 136.307C49.9088 138.6 49.7234 141.193 49.7509 142.081C49.7289 142.941 49.6036 145.33 49.3399 147.404C48.1274 159.181 48.2918 164.902 50.0269 166.658C51.0977 167.728 51.3478 167.074 51.0981 163.605C50.9352 161.215 50.9753 161.078 51.4791 162.31C51.9333 163.513 52.2015 163.583 53.2467 162.973C53.9435 162.567 54.4914 162.078 54.502 161.846C54.4629 161.587 54.7712 161.52 55.1186 161.713C55.4164 161.878 55.9939 161.485 56.3633 160.817C56.8025 160.11 57.6482 159.786 58.6016 160.077C60.0419 160.48 60.3407 160.249 61.3508 157.796C61.9809 156.243 62.9088 154.855 63.4061 154.734C64.1621 154.519 64.2022 154.383 63.7375 153.412C63.4407 152.85 63.4743 151.362 63.7856 150.108C65.0899 145.281 65.1711 144.612 64.2597 143.393L63.3188 142.077L64.4001 142.915C65.4518 143.658 65.6514 143.372 66.6023 140.728C67.263 138.874 67.3442 138.205 66.8555 138.886C66.2168 139.879 66.1777 139.62 66.5607 137.533C66.7928 136.155 67.273 134.915 67.5813 134.848C67.9593 134.74 67.9012 134.153 67.5452 133.4C67.0833 132.615 67.223 132.402 67.9643 132.761C68.5598 133.091 69.1564 133.026 69.2767 132.617C69.377 132.276 69.2386 131.961 68.9799 132.056C68.7213 132.15 68.4952 131.152 68.5182 129.896C68.5623 128.176 68.7027 127.699 69.0596 128.055C69.8432 128.728 70.3054 126.764 69.582 125.887C69.2451 125.462 69.036 125.584 69.0942 126.172C69.1724 126.691 68.9729 126.976 68.7247 126.839C68.1788 126.536 68.3803 125.458 69.9855 119.609C70.4772 117.74 70.59 116.376 70.2426 116.183C69.1507 115.577 69.253 114.444 70.3995 113.098C71.2968 112.01 71.5068 111.492 71.2406 110.631C71.0336 109.961 71.0461 108.937 71.2466 108.255C71.4271 107.642 71.3203 106.631 71.0235 106.069C70.6771 105.481 70.7117 103.597 71.1443 101.537C71.4872 99.5864 71.6421 97.2934 71.3959 96.3638C71.1794 95.53 71.2014 94.6699 71.4104 94.548C71.6395 94.358 71.7313 93.4573 71.5748 92.4189C71.3984 91.4487 71.3919 90.097 71.5924 89.4153C71.7929 88.7336 71.7548 88.078 71.457 87.9128C71.2089 87.7751 71.1412 87.0238 71.3617 86.2739C71.5823 85.5241 71.5643 84.8003 71.2665 84.6351C71.0183 84.4974 70.9527 82.9543 71.0865 81.1254C71.2499 79.3922 71.274 77.7403 71.1356 77.4256C70.8293 76.7005 70.3941 67.974 70.6146 67.2241C70.7349 66.8151 70.5088 65.8173 70.1233 64.969C69.7378 64.1207 69.5318 63.0547 69.6721 62.5775C69.993 61.4868 69.9007 58.6602 69.5011 55.5044C69.2961 54.0425 69.2304 52.4994 69.3908 51.954C69.4816 51.4493 69.2765 49.9874 68.8423 48.7156C68.4082 47.4438 68.2032 45.9819 68.3836 45.3683C68.544 44.823 68.337 44.153 67.94 43.9326C67.2451 43.547 67.1965 43.1236 67.8191 40.6144C67.97 39.9051 67.7755 38.2112 67.4015 36.7348C67.0275 35.2585 66.8921 33.756 67.1117 33.4021C67.3313 33.0481 67.0185 30.9714 66.4078 28.7293C65.7972 26.4873 64.9996 23.5071 64.7048 22.154C64.3604 20.7734 63.8566 19.5422 63.5092 19.3494C63.2315 19.116 62.9643 18.6505 62.9853 18.1864C63.0359 17.818 62.3326 16.8726 61.5691 16.1317C60.4286 15.1022 59.9915 15.0182 59.791 15.6999Z" fill="#171717"/>
<path id="Vector_3" fill-rule="evenodd" clip-rule="evenodd" d="M189.425 126.499C189.344 126.771 188.758 126.605 188.173 126.042C187.439 125.397 186.744 125.407 186.245 125.924C185.747 126.44 185.409 126.411 185.331 125.892C185.185 124.621 177.044 124.624 175.202 125.98C174.674 126.401 173.938 126.548 173.64 126.382C173.343 126.217 172.517 126.473 171.8 126.947C171.133 127.449 170.208 127.649 169.811 127.429C169.414 127.209 168.986 127.289 168.866 127.698C168.766 128.039 168.318 128.187 167.921 127.966C167.474 127.718 166.887 127.948 166.578 128.41C166.219 128.846 165.533 129.02 165.036 128.744C164.54 128.469 163.973 128.63 163.833 129.107C163.432 130.471 161.462 131.281 159.544 130.93C158.67 130.762 157.218 130.987 156.382 131.475C155.546 131.962 153.895 132.473 152.701 132.604C151.538 132.831 150.503 133.208 150.423 133.481C150.323 133.822 149.965 133.861 149.617 133.668C148.873 133.255 145.468 135.41 145.446 136.27C145.395 136.638 144.938 136.622 144.343 136.292C143.797 135.989 143.369 136.069 143.438 136.424C143.486 136.847 142.361 137.73 140.888 138.419C139.415 139.108 138.101 140.044 137.981 140.453C137.84 140.93 137.422 141.174 137.124 141.009C136.43 140.623 130.596 143.968 130.316 144.922C130.235 145.195 129.041 145.722 127.669 146.07C126.316 146.35 125.122 146.877 125.042 147.15C124.902 147.627 123.298 148.957 121.446 150.15C120.938 150.502 120.44 151.019 120.32 151.428C120.199 151.837 119.572 152.203 118.856 152.281C118.12 152.428 117.602 153.012 117.591 153.64C117.579 154.268 117.36 154.622 117.111 154.485C116.863 154.347 115.967 155.039 115.13 155.922C113.624 157.704 113.405 158.058 112.875 159.27C112.775 159.611 112.277 159.732 111.88 159.511C110.987 159.016 110.487 160.324 111.36 160.888C111.638 161.121 111.329 161.188 110.554 161.075C109.61 160.948 109.033 161.341 108.622 162.541C107.641 165.485 107.441 165.771 106.647 165.33C106.151 165.055 105.832 165.354 105.821 165.982C105.809 166.61 105.629 167.223 105.42 167.345C105.161 167.439 104.662 168.352 104.311 169.347C103.931 170.246 103.382 171.131 103.074 171.198C102.248 171.453 100.183 178.475 100.307 180.605C100.401 182.64 101.571 183.765 101.992 182.334C102.483 180.861 105.768 179.116 106.909 179.749C107.753 180.217 107.942 180.164 107.536 179.384C106.943 178.261 107.47 177.84 113.833 173.679C115.684 172.486 119.04 170.304 121.399 168.759C126.696 165.275 149.301 152.604 157.333 148.655C158.925 147.953 160.14 146.962 160.091 146.538C160.043 146.115 160.619 146.118 161.314 146.503C162.058 146.916 162.585 146.892 162.507 146.372C162.478 145.881 162.856 145.773 163.452 146.104C164.048 146.434 164.446 146.259 164.397 145.835C164.368 145.344 164.498 145.098 164.746 145.236C164.995 145.374 165.522 144.953 165.892 144.286C166.261 143.619 166.888 143.253 167.335 143.501C167.782 143.749 168.27 143.464 168.43 142.919C168.59 142.374 168.979 142.034 169.326 142.227C169.624 142.392 170.479 142.232 171.226 141.854C172.211 141.449 172.549 141.478 172.517 142.174C172.464 143.334 174.315 142.537 174.696 141.242C174.837 140.765 175.244 140.753 175.561 141.246C176.027 141.822 176.326 141.591 176.646 140.501C176.974 139.519 177.235 139.611 177.431 140.777C177.627 141.943 178.236 142.228 179.258 141.633L180.721 140.779L179.261 140.445C178.208 140.098 177.95 139.797 178.359 139.389C178.678 139.09 179.274 139.025 179.671 139.245C180.068 139.465 180.547 139.017 180.767 138.267C180.988 137.517 181.367 137.014 181.615 137.152C181.863 137.29 183.494 136.847 185.275 136.091C187.036 135.403 189.444 134.677 190.517 134.559C193.928 134.152 194.585 133.486 194.025 131.272C193.749 130.246 193.244 129.411 192.836 129.423C192.429 129.435 192.142 129.037 192.143 128.641C192.185 127.713 189.665 125.68 189.425 126.499Z" fill="#171717"/>
</g>
</svg>
